<svg version="1" xmlns="http://www.w3.org/2000/svg" width="933.333" height="933.333" viewBox="0 0 700.000000 700.000000"><path d="M326 64c-5.4 1.8-10.2 5.7-12.4 10-.7 1.4-9.3 16.2-19.1 33s-18.5 31.8-19.3 33.3c-1.6 3.1-2 3.4-7.6 4.2-3.7.5-8 2.6-20.6 10.1-6.6 3.9-53.6 31-60 34.6-4.5 2.5-21.4 12.3-38.5 22.3-4.9 2.9-11 6.4-13.5 7.8-16 8.8-32.9 19.1-35.3 21.3-6.6 6.2-6.2.3-6.4 92.9-.1 46.2-.3 87.1-.3 91 0 7 0 7-4.8 12-13 13.6-34.5 38.2-35.4 40.4-2.4 6.2-1.4 13 2.7 18.6 1.1 1.4 7.2 5.7 13.5 9.5 12.6 7.4 57.8 33.7 65 37.8 2.5 1.4 6.1 3.5 8 4.7 1.9 1.2 5.5 3.3 8 4.7 2.5 1.4 15.5 9 29 16.8 13.5 7.9 28.1 16.4 32.5 18.9 4.4 2.6 26.7 15.6 49.6 28.9 44.2 25.8 43.6 25.5 53.8 23.7 4.8-.8 8.6-4.1 22.2-19.4 4-4.6 9.3-10.5 11.6-13 2.3-2.5 4.3-4.9 4.3-5.4 0-1.7 3.4-.3 13.8 5.7 6.1 3.6 13.2 7.6 15.6 9 2.5 1.4 12.5 7.1 22.3 12.8l17.8 10.3h7.5c8.9 0 4.8 2 50.5-24.5 19.3-11.1 36.6-21.2 38.5-22.3 18.5-10.4 71.1-40.9 76.7-44.4 5.4-3.3 8-5.6 10-9.1l2.8-4.7.1-94.5c.1-52-.2-96.3-.6-98.4-1.6-7.2-4.7-10-22.8-20.3-5.3-3.1-11.3-6.4-13.2-7.5-6.5-3.7-22.5-13-24.7-14.4-2.2-1.4-2.2-1.5 6.2-16 4.7-8 8.5-14.8 8.5-15 0-.3 1.5-2.9 3.3-5.7 1.8-2.9 3.7-6.1 4.3-7.2.6-1.1 4.8-8.5 9.3-16.3 9.6-16.8 11-20.2 10.7-27-.3-7.8-5.1-13.2-18.6-20.4-5.2-2.8-79.5-44.2-97.7-54.4-8.2-4.6-12.8-7.2-21.8-12.1-4.9-2.8-10.7-6-12.7-7.2-7.4-4.2-10.5-5.9-21.8-12.1-6.3-3.5-13.1-7.2-15-8.3-13.8-7.8-56.2-31.4-59.3-33-6.1-3.2-10.9-3.7-16.7-1.7zm36.6 57.8c12.6 7.1 25.2 14.2 27.9 15.7 10.1 5.7 19.1 10.8 24 13.5 5.4 3 59.8 33.4 65.5 36.7 1.9 1.1 6.2 3.5 9.5 5.3 3.3 1.8 11 6.1 17 9.5 6.1 3.5 13.3 7.5 16 9 2.8 1.5 7.6 4.3 10.8 6.1 3.2 1.9 6.1 3.4 6.6 3.4.4 0 1.2.5 1.8 1.1.9.9.5 2.5-1.6 6.3-5.4 9.6-56.2 98.1-56.6 98.4-.2.3-3.7-1.5-7.7-3.8s-8.6-5-10.3-6c-1.6-.9-18.3-10.6-37-21.5s-39.8-23.1-47-27.3c-7.1-4.1-16.8-9.7-21.5-12.5-8-4.7-10.5-6.1-18.2-10.5-1.8-1.1-14.8-8.6-28.8-16.7-14-8.2-27.1-15.7-29.1-16.8l-3.7-2 1.8-3.1c.9-1.7 3.2-5.6 5-8.6 1.8-3 4.2-7.1 5.3-9 9.7-17.3 46.7-80 47.1-80 .2 0 10.6 5.8 23.2 12.8zM234 210.9c-2.1 4.1-1.5 10.8 1.6 15.8 2.6 4.1 4.9 5.9 17.9 13.5 8.3 4.8 16.1 9.4 17.5 10.1 1.4.7 13.8 7.9 27.5 15.9 13.8 8 26.6 15.5 28.5 16.5 1.9 1.1 25.8 15 53 30.8s60.5 35.1 74 43c31.6 18.3 30.5 17.8 36.6 17.7 10.7-.1 14.4-3.7 26.7-26.2 1.7-3 4.1-7.2 5.4-9.2 1.3-2.1 2.3-4.2 2.3-4.8 0-.5.3-1 .7-1 1.7 0 23.3 13.3 22.6 14-.4.4-22.3 13.2-48.7 28.4-26.3 15.3-49.2 28.6-51 29.6-7.5 4.6-17.4 10-18 10-.3 0-6.4-3.3-13.4-7.4-7-4.1-14.2-8.2-15.9-9.2-7.6-4.4-52.9-30.6-54.3-31.4-5.7-3.5-31.3-18-31.6-18-.3 0-2.1-1.1-4.2-2.3-2-1.3-21.5-12.6-43.2-25.1-21.7-12.5-46.7-27-55.5-32.1-8.8-5.1-25.8-14.8-37.7-21.6-11.9-6.8-21.7-12.7-21.8-13 0-.4 22-13.2 34.9-20.2 1.9-1.1 8.7-4.9 15-8.5 6.4-3.6 14.1-7.9 17.1-9.6 3-1.6 7.5-4.2 10-5.6 2.5-1.5 4.6-2.6 4.8-2.4.2.1-.1 1.2-.8 2.3zm-88.9 85.7c6.3 3.7 17.7 10.3 25.4 14.7 7.7 4.4 15.4 8.8 17 9.7 1.7 1 11.3 6.6 21.5 12.5s19.9 11.5 21.5 12.3c1.7.8 4.1 2.3 5.5 3.2 1.4.9 4.8 3 7.5 4.5 2.8 1.5 13.8 7.8 24.5 14s21.1 12.1 23 13.2c1.9 1.1 14.8 8.5 28.5 16.5 22.7 13.1 71.9 41.5 85.5 49.3l5.5 3.1.3 68.7c.1 37.8-.1 68.7-.5 68.7-.7 0-23.8-13-27.6-15.6-1.5-1-1.6-1.4-.5-2.5.8-.8 5.6-6.4 10.8-12.4 5.2-6.1 10.1-11.6 10.8-12.4 4.9-5.1 6.6-15.4 3.6-21.2-2.1-4.2-8-10.6-11.2-12.2-3.6-1.8-13.2-7.1-33.7-18.5-9.3-5.2-19.5-10.9-22.5-12.5-3-1.6-8.1-4.5-11.3-6.3-3.2-1.9-6-3.4-6.2-3.4-.2 0-2.8-1.4-5.7-3.1-2.9-1.7-8.2-4.7-11.8-6.7-3.6-1.9-18-9.9-32-17.7-14-7.8-28.2-15.7-31.5-17.5-3.3-1.8-11.4-6.3-18-10s-15-8.4-18.7-10.4c-3.7-2-15.6-8.6-26.5-14.6-10.8-6.1-21.2-11.4-22.9-11.9-6.5-1.8-14.2.5-20 6l-3.1 3v-48.6c.1-26.7.4-48.5.7-48.5.4 0 5.9 3 12.1 6.6zm424.4 153.3v68.9l-29.5 17c-16.2 9.3-42.9 24.7-59.3 34.2-16.5 9.4-30.1 17-30.3 16.7-.5-.5-.8-136.7-.3-137.1.2-.2 13.2-7.6 28.9-16.6 15.7-9 38.4-22.1 50.5-29.1 16.2-9.3 39.3-22.6 40-22.9v68.9zm-411.9-26c.5.4 3.4 2.2 6.4 3.8 3 1.7 20.8 11.6 39.5 22 18.7 10.5 36 20.2 38.5 21.6 2.5 1.3 11.9 6.6 21 11.7s19 10.6 22 12.2c3 1.7 9.1 5.1 13.5 7.6s9.8 5.5 12 6.7c2.2 1.2 8.3 4.5 13.5 7.4 5.2 3 11.8 6.6 14.5 8.1 14.6 8.1 19 10.8 18.7 11.6-.3.7-40.3 47.5-49.2 57.4l-2.5 2.8-24-14c-13.2-7.8-25.4-14.8-27-15.8-1.7-.9-8.4-4.9-15-8.7-62.6-36.5-115.9-67.6-124.7-72.7-5.9-3.3-10.8-6.4-10.8-6.8 0-.6 2.3-3.3 12-13.8 1.4-1.5 6.3-6.9 11-12s10.5-11.4 12.9-13.9c2.4-2.5 6.6-7.2 9.4-10.4 5-5.7 6.4-6.5 8.3-4.8z"/></svg>