<svg enable-background="new 0 0 1000 1000" viewBox="0 0 1000 1000" xmlns="http://www.w3.org/2000/svg"><path d="m633.49 980.89c-15.552 0-28.512-12.96-28.512-28.512v-225.51l-261.79-150.34v194.4c0 15.553-12.961 28.513-28.512 28.513-15.553 0-28.513-12.96-28.513-28.513v-228.1l-103.68-59.62c-7.775-5.184-12.96-14.256-12.96-24.624v-406.95c0-28.512 36.29-53.14 64.8-36.29l580.61 335.67c9.07 5.184 14.256 14.256 14.256 24.624v406.94c0 32.4-32.4 54.43-64.801 36.29l-102.38-59.62v193.11c.0001 15.552-12.958 28.512-28.511 28.512z" fill="#6f0" stroke="#6f0" stroke-miterlimit="10" stroke-width="11"/><path d="m633.49 980.89c-15.552 0-28.512-12.96-28.512-28.512v-225.51l-261.79-150.34v194.4c0 15.553-12.961 28.513-28.512 28.513-15.553 0-28.513-12.96-28.513-28.513v-228.1l-103.68-59.62c-7.775-5.184-12.96-14.256-12.96-24.624v-406.95c0-28.512 36.29-53.14 64.8-36.29l580.61 335.67c9.07 5.184 14.256 14.256 14.256 24.624v406.94c0 32.4-32.4 54.43-64.801 36.29l-102.38-59.62v193.11c.0001 15.552-12.958 28.512-28.511 28.512m-408.24-879.99v340.85l524.88 303.26v-342.14z"/></svg>