<svg enable-background="new 0 0 1000 1000" viewBox="0 0 1000 1000" xmlns="http://www.w3.org/2000/svg"><path d="m485.75 907.02-396.58-229.39c-9.07-5.184-14.256-14.256-14.256-24.624v-104.98c0-10.367 5.184-19.439 14.256-24.623l47.952-28.513-47.952-28.512c-9.07-3.888-14.256-14.256-14.256-24.624v-104.98c0-10.368 5.184-19.44 14.256-24.624l396.58-229.39c9.07-3.888 19.44-3.888 28.512 0l396.58 229.39c9.07 5.184 14.256 14.256 14.256 24.624v104.98c0 10.368-5.184 20.736-14.256 24.624l-49.25 28.512 49.25 28.513c9.07 5.184 14.256 14.256 14.256 24.623v104.98c0 10.368-5.184 19.44-14.256 24.624l-396.58 229.39c-3.888 2.592-9.07 3.888-14.256 3.888s-10.368-1.296-14.256-3.888z" fill="#ff0" stroke="#ff0" stroke-miterlimit="10" stroke-width="11"/><path d="m485.75 907.02-396.58-229.39c-9.07-5.184-14.256-14.256-14.256-24.624v-104.98c0-10.367 5.184-19.439 14.256-24.623l47.952-28.513-47.952-28.512c-9.07-3.888-14.256-14.256-14.256-24.624v-104.98c0-10.368 5.184-19.44 14.256-24.624l396.58-229.39c9.07-3.888 19.44-3.888 28.512 0l396.58 229.39c9.07 5.184 14.256 14.256 14.256 24.624v104.98c0 10.368-5.184 20.736-14.256 24.624l-49.25 28.512 49.25 28.513c9.07 5.184 14.256 14.256 14.256 24.623v104.98c0 10.368-5.184 19.44-14.256 24.624l-396.58 229.39c-3.888 2.592-9.07 3.888-14.256 3.888s-10.368-1.296-14.256-3.888m382.32-480.82v-40.18l-353.81 204.77s0 0-1.296 1.296c0 0 1.296-1.296-1.296 0-3.888 1.296-7.776 2.592-5.184 1.296-1.296 1.296-2.592 1.296-3.888 1.296h-2.592c-5.184 0-10.368-1.296-14.256-3.888l-353.81-204.77v40.18l368.06 212.55 368.07-212.55m0 209.95v-38.88l-353.81 203.47s0 0-1.296 1.296c0 0 1.296-1.296-1.296 0-3.888 1.296-7.776 2.592-5.184 1.296-1.296 1.296-2.592 1.296-3.888 1.296h-2.592c-5.184 0-10.368-1.296-14.256-3.888l-353.81-203.47v38.88l368.06 213.84 368.07-213.84m-27.22-299.38-340.85-195.7-340.85 195.7 340.85 196.99zm0 211.25-34.992-20.736-291.6 168.48c-3.888 2.592-9.07 3.889-14.256 3.889s-10.368-1.297-14.259-3.887l-290.3-168.48-36.29 20.736 340.85 195.7 340.85-195.7"/></svg>