<svg xmlns="http://www.w3.org/2000/svg" viewBox="0 0 1000 1000" enable-background="new 0 0 1000 1000"><path fill="#90c" stroke="#90c" stroke-width="11" stroke-miterlimit="10" d="m485.75 887.58l-453.6-261.79c-7.776-3.888-12.961-11.664-14.256-20.736-1.297-9.07 2.592-16.848 7.775-23.328l453.6-463.97c9.07-9.07 23.328-11.664 33.696-5.184l453.6 237.17c7.775 3.888 12.959 11.664 15.551 19.44 1.297 9.07-1.295 18.14-7.775 24.624l-453.6 488.59c-5.184 6.479-12.961 9.07-20.736 9.07-5.184.0001-10.368-1.295-14.256-3.887z"/><path d="m485.75 887.58l-453.6-261.79c-7.776-3.888-12.961-11.664-14.256-20.736-1.297-9.07 2.592-16.848 7.775-23.328l453.6-463.97c9.07-9.07 23.328-11.664 33.696-5.184l453.6 237.17c7.775 3.888 12.959 11.664 15.551 19.44 1.297 9.07-1.295 18.14-7.775 24.624l-453.6 488.59c-5.184 6.479-12.961 9.07-20.736 9.07-5.184.0001-10.368-1.295-14.256-3.887m9.07-60.912l412.13-444.53-401.76-209.95-413.43 422.5 403.06 231.99m330.48-430.27l-340.85 366.77-309.74-180.14 340.85-348.62 309.74 162"/></svg>