<svg xmlns="http://www.w3.org/2000/svg" viewBox="0 0 1000 1000" enable-background="new 0 0 1000 1000"><path fill="#f0c" stroke="#f0c" stroke-width="11" stroke-miterlimit="10" d="m601.09 913.5l-94.61-54.43-42.768 47.952c-5.184 6.479-12.96 9.07-22.03 9.07-3.888 0-9.07 0-12.96-2.593l-340.85-198.29c-7.776-3.889-12.96-11.664-14.256-19.44-1.296-9.07 1.296-16.849 7.776-23.328l51.84-57.02v-251.43c0-9.07 5.184-19.44 14.256-24.624l226.8-130.9c3.888-2.592 10.368-2.592 15.552-2.592l59.62-102.38c7.776-12.96 24.624-18.14 38.88-10.368l339.55 189.22c6.48 3.888 11.664 10.368 14.256 16.848 1.296 7.776 0 15.552-2.592 22.03l-60.913 106.27 76.46 44.06c9.07 3.888 14.256 14.256 14.256 23.328v263.09c0 9.07-5.184 19.44-14.256 24.624l-226.8 130.9c-3.888 1.296-9.07 2.593-12.96 2.593-5.184 0-10.368-1.297-14.257-2.593z"/><path d="m601.09 913.5l-94.61-54.43-42.768 47.952c-5.184 6.479-12.96 9.07-22.03 9.07-3.888 0-9.07 0-12.96-2.593l-340.85-198.29c-7.776-3.889-12.96-11.664-14.256-19.44-1.296-9.07 1.296-16.849 7.776-23.328l51.84-57.02v-251.43c0-9.07 5.184-19.44 14.256-24.624l226.8-130.9c3.888-2.592 10.368-2.592 15.552-2.592l59.62-102.38c7.776-12.96 24.624-18.14 38.88-10.368l339.55 189.22c6.48 3.888 11.664 10.368 14.256 16.848 1.296 7.776 0 15.552-2.592 22.03l-60.913 106.27 76.46 44.06c9.07 3.888 14.256 14.256 14.256 23.328v263.09c0 9.07-5.184 19.44-14.256 24.624l-226.8 130.9c-3.888 1.296-9.07 2.593-12.96 2.593-5.184 0-10.368-1.297-14.257-2.593m-164.59-60.912l75.17-86.83-290.31-162-73.872 80.35 289.01 168.48m150.34-209.95l-397.87-229.39v139.97l5.184-5.185c9.07-9.07 23.328-11.664 34.992-5.184l340.85 189.22c6.48 5.184 11.664 11.664 14.256 20.736 1.296 7.775-1.296 16.848-6.48 23.328l-33.696 38.88 42.768 24.624v-196.99zm198.29-147.74l-33.696-19.44-25.92 45.36c-3.888 6.479-10.368 10.368-16.848 12.96-2.592 0-5.184 1.297-7.776 1.297-5.184 0-10.368-1.297-14.256-3.889l-339.55-196.99c-7.776-3.888-11.664-10.368-14.256-18.14-1.296-6.48 0-14.256 3.888-19.44l-119.23 67.39 397.87 229.39 169.78-98.5m-94.61-27.22l85.54-149.04-291.6-163.3-84.24 143.86 290.31 168.48m-47.952 371.95l171.07-98.5v-196.99l-171.07 98.5v196.99"/></svg>