<svg xmlns="http://www.w3.org/2000/svg" viewBox="0 0 1000 1000" enable-background="new 0 0 1000 1000"><path fill="#0ff" stroke="#0ff" stroke-width="11" stroke-miterlimit="10" d="m385.95 986.08c-3.888 0-9.07-1.296-12.96-3.888l-340.85-196.99c-7.776-5.184-14.256-12.96-14.256-23.327 0-9.07 3.888-19.44 12.96-24.625l19.44-12.96v-72.58c0-9.07 5.184-19.439 14.256-24.624 7.776-3.888 19.44-3.888 27.22 0l53.14 31.1 2.592-1.296c-1.296-3.889-2.592-7.776-2.592-12.96v-57.02c0-10.368 5.184-19.44 12.96-24.624 9.07-5.185 20.736-5.185 28.512 0l54.43 31.1 3.888-2.592v-226.8c0-9.07 5.184-19.44 14.256-24.624l226.8-130.9c5.184-2.592 10.368-2.592 16.848-2.592l29.809-49.25c7.776-12.96 24.624-18.14 37.584-10.368l340.85 189.22c6.48 3.888 11.664 10.368 12.96 16.848 2.592 7.776 1.296 15.552-2.592 22.03l-29.808 51.84 76.46 45.36c9.07 3.888 14.256 14.256 14.256 23.328v263.09c0 9.07-5.184 19.44-14.256 24.624l-226.8 130.9c-3.888 1.296-9.07 2.592-14.256 2.592s-10.368-1.296-14.26-2.592l-119.23-68.69-190.51 136.08c-5.184 3.888-10.368 5.184-16.848 5.184z"/><path d="m385.95 986.08c-3.888 0-9.07-1.296-12.96-3.888l-340.85-196.99c-7.776-5.184-14.256-12.96-14.256-23.327 0-9.07 3.888-19.44 12.96-24.625l19.44-12.96v-72.58c0-9.07 5.184-19.439 14.256-24.624 7.776-3.888 19.44-3.888 27.22 0l53.14 31.1 2.592-1.296c-1.296-3.889-2.592-7.776-2.592-12.96v-57.02c0-10.368 5.184-19.44 12.96-24.624 9.07-5.185 20.736-5.185 28.512 0l54.43 31.1 3.888-2.592v-226.8c0-9.07 5.184-19.44 14.256-24.624l226.8-130.9c5.184-2.592 10.368-2.592 16.848-2.592l29.809-49.25c7.776-12.96 24.624-18.14 37.584-10.368l340.85 189.22c6.48 3.888 11.664 10.368 12.96 16.848 2.592 7.776 1.296 15.552-2.592 22.03l-29.808 51.84 76.46 45.36c9.07 3.888 14.256 14.256 14.256 23.328v263.09c0 9.07-5.184 19.44-14.256 24.624l-226.8 130.9c-3.888 1.296-9.07 2.592-14.256 2.592s-10.368-1.296-14.26-2.592l-119.23-68.69-190.51 136.08c-5.184 3.888-10.368 5.184-16.848 5.184m229.39-225.5l-286.42-159.41-33.696 23.328 28.512 16.848c14.256 7.776 18.14 25.921 10.368 38.881-5.184 9.07-14.256 14.256-24.624 14.256-3.888 0-9.07-1.296-12.96-3.889l-53.14-29.808-44.06 29.808 29.808 16.849c14.256 7.776 19.44 24.624 10.368 38.88-5.184 9.07-14.256 14.256-23.328 14.256-5.184 0-10.368-1.296-14.256-3.888l-53.14-31.1-49.25 33.696 285.12 164.59 230.69-163.3m82.944-117.94l-351.22-202.18-45.36-27.22v137.38l10.368-6.48c7.776-5.185 19.44-6.479 29.808-1.296l339.55 189.22c9.07 5.184 14.256 14.256 14.256 23.328 1.296 10.368-3.888 19.44-11.664 24.624l-38.88 28.512 53.14 31.1v-196.99m198.29-147.74l-33.696-19.44-25.92 45.36c-2.592 6.479-9.07 10.368-16.848 12.96-2.592 0-5.184 1.297-7.776 1.297-3.888 0-9.07-1.297-12.96-3.889l-340.85-196.99c-6.48-3.888-11.664-10.368-12.96-18.14-2.592-7.776-1.296-15.552 1.296-18.14l-116.64 66.1 396.58 229.39 169.78-98.5m-94.61-27.22l55.728-95.9-290.3-163.3-55.728 90.72 290.31 168.48m123.12 273.46v-196.99l-19.44 11.664-150.34 86.83v196.99l169.78-98.5"/></svg>