<svg xmlns="http://www.w3.org/2000/svg" viewBox="0 0 1000 1000" enable-background="new 0 0 1000 1000"><path fill="#f90" stroke="#f90" stroke-width="11" stroke-miterlimit="10" d="m641.27 948.49c-5.185 0-10.368-1.296-14.256-3.888l-373.25-216.43c-9.07-5.185-14.256-14.257-14.256-24.624v-84.24l-54.43-31.1c-11.664-6.48-16.848-20.736-14.256-32.4 3.888-12.96 15.552-20.735 27.22-20.735h41.472v-51.841l-54.43-31.1c-11.664-6.48-16.848-20.736-14.256-32.4 3.888-12.96 15.552-20.736 27.22-20.736h41.472v-51.84l-54.43-31.1c-11.664-6.48-16.848-20.736-14.256-32.4 3.888-12.96 15.552-20.736 27.22-20.736h41.472v-51.84l-54.43-31.1c-11.664-6.48-16.848-20.736-14.256-32.4 3.888-12.96 15.552-20.736 27.22-20.736h41.472v-58.32c0-10.368 5.184-19.44 14.256-24.624 3.888-2.592 7.776-3.888 12.96-3.888h53.14c5.184 0 9.07 1.296 12.96 3.888l374.55 216.43c9.07 5.184 14.256 14.256 14.256 24.624v635.04c0 10.368-5.185 19.44-14.256 24.624-3.889 2.592-9.07 3.888-14.256 3.888h-51.84z"/><path d="m641.27 948.49c-5.185 0-10.368-1.296-14.256-3.888l-373.25-216.43c-9.07-5.185-14.256-14.257-14.256-24.624v-84.24l-54.43-31.1c-11.664-6.48-16.848-20.736-14.256-32.4 3.888-12.96 15.552-20.735 27.22-20.735h41.472v-51.841l-54.43-31.1c-11.664-6.48-16.848-20.736-14.256-32.4 3.888-12.96 15.552-20.736 27.22-20.736h41.472v-51.84l-54.43-31.1c-11.664-6.48-16.848-20.736-14.256-32.4 3.888-12.96 15.552-20.736 27.22-20.736h41.472v-51.84l-54.43-31.1c-11.664-6.48-16.848-20.736-14.256-32.4 3.888-12.96 15.552-20.736 27.22-20.736h41.472v-58.32c0-10.368 5.184-19.44 14.256-24.624 3.888-2.592 7.776-3.888 12.96-3.888h53.14c5.184 0 9.07 1.296 12.96 3.888l374.55 216.43c9.07 5.184 14.256 14.256 14.256 24.624v635.04c0 10.368-5.185 19.44-14.256 24.624-3.889 2.592-9.07 3.888-14.256 3.888h-51.84zm-28.513-646.71l-317.52-184.03v59.62l54.43 32.4c14.256 7.776 19.44 24.624 11.664 38.88-6.48 9.07-15.552 14.256-24.625 14.256-5.184 0-10.368-1.296-14.256-3.888l-27.22-15.552v69.984l54.43 32.4c14.256 7.776 19.44 24.624 11.664 38.88-6.48 9.07-15.552 14.256-24.625 14.256-5.184 0-10.368-1.296-14.256-3.888l-27.22-15.552v69.984l54.43 32.4c14.256 7.776 19.44 24.624 11.664 38.88-6.48 9.07-15.552 14.257-24.625 14.257-5.184 0-10.368-1.297-14.256-3.889l-27.22-15.552v69.984l54.43 32.399c14.256 7.776 19.44 24.624 11.664 38.881-6.48 9.07-15.552 14.256-24.625 14.256-5.184 0-10.368-1.296-14.256-3.888l-27.22-15.553v36.29l317.52 182.74v-568.94z"/></svg>