<svg enable-background="new 0 0 1000 1000" viewBox="0 0 1000 1000" xmlns="http://www.w3.org/2000/svg"><path d="m485.75 978.3-453.6-261.79c-9.07-5.185-14.256-14.257-14.256-24.624v-136.08c0-10.368 5.184-19.44 14.256-24.624l453.6-261.79c9.07-5.184 19.439-5.184 28.512 0l453.6 261.79c9.07 5.184 14.256 14.256 14.256 24.624v136.08c0 10.367-5.184 19.439-14.256 24.624l-453.6 261.79c-3.888 2.592-9.07 3.888-14.256 3.888s-10.368-1.296-14.256-3.888zm14.256-881.28c-15.553 0-28.512-11.664-28.512-27.22v-23.328c0-15.552 12.959-28.512 28.512-28.512s28.512 12.96 28.512 28.512v23.328c0 15.552-12.959 27.22-28.512 27.22zm0 141.26c-15.553 0-28.512-12.96-28.512-28.512v-46.656c0-15.552 12.959-28.512 28.512-28.512s28.512 12.96 28.512 28.512v46.656c0 15.551-12.959 28.512-28.512 28.512z" fill="#f00" stroke="#f00" stroke-miterlimit="10" stroke-width="11"/><path d="m485.75 978.3-453.6-261.79c-9.07-5.185-14.256-14.257-14.256-24.624v-136.08c0-10.368 5.184-19.44 14.256-24.624l453.6-261.79c9.07-5.184 19.439-5.184 28.512 0l453.6 261.79c9.07 5.184 14.256 14.256 14.256 24.624v136.08c0 10.367-5.184 19.439-14.256 24.624l-453.6 261.79c-3.888 2.592-9.07 3.888-14.256 3.888s-10.368-1.296-14.256-3.888m200.88-164.59v-71.28l-172.37 99.79c-3.888 2.593-9.07 3.889-14.256 3.889h-2.592c-1.297 0-2.592 0-3.889-1.296 2.592 1.296 3.889 1.296-5.184-1.297 0 0-1.296-1.296-1.296 0l-1.296-1.296-410.83-237.17v69.984l425.09 246.24 186.62-107.57m-28.512-120.53-172.37-101.09c-12.961-7.775-18.14-24.624-10.368-37.584 7.776-14.256 25.92-18.14 38.88-10.368l200.88 116.64 181.44-104.98-368.07-212.54v7.776c0 15.552-12.959 28.512-28.512 28.512s-28.512-12.96-28.512-28.512v-7.776l-368.07 212.54 396.58 229.39 158.11-92.02m-103.68-155.52c-3.888-6.48-5.184-14.256-3.888-20.736-1.296 1.296-3.888 1.296-5.184 1.296-5.185 0-9.07-1.296-14.257-3.888-7.775-5.185-12.959-12.961-14.252-24.627-3.889 3.888-10.369 6.48-16.849 6.48s-12.96-2.592-16.851-6.477c-1.297 11.664-6.48 19.44-14.256 24.625-5.185 2.592-9.07 3.888-14.257 3.888l-5.184-1.296c1.296 6.48 0 14.256-3.888 20.736-5.185 9.07-14.257 12.96-24.625 12.96-3.888 0-9.07 0-14.256-2.593l-58.32-34.992c-12.96-7.775-18.14-24.624-10.367-38.88 7.775-12.96 24.623-18.14 38.879-10.368l46.656 27.22-27.22-46.656c-7.776-12.96-3.888-29.809 10.368-37.584 12.96-7.776 31.1-3.888 38.881 10.368l25.92 45.36v-16.848c0-15.552 12.959-28.512 28.512-28.512s28.512 12.96 28.512 28.512v16.848l25.92-45.36c7.776-14.256 25.921-18.14 38.881-10.368 14.256 7.776 18.14 24.624 10.368 37.584l-27.22 46.656 46.656-27.22c14.256-7.776 31.1-2.592 38.879 10.368 7.777 14.256 2.593 31.1-10.367 38.88l-58.32 34.992c-5.184 2.593-10.368 2.593-14.256 2.593-10.367-.0001-19.439-3.89-24.623-12.961m-54.43-440.64c-15.553 0-28.512-11.664-28.512-27.22v-23.328c0-15.552 12.959-28.512 28.512-28.512s28.512 12.96 28.512 28.512v23.328c0 15.552-12.959 27.22-28.512 27.22m0 141.26c-15.553 0-28.512-12.96-28.512-28.512v-46.656c0-15.552 12.959-28.512 28.512-28.512s28.512 12.96 28.512 28.512v46.656c0 15.551-12.959 28.512-28.512 28.512m425.09 366.77-181.44 104.98v69.984l181.44-104.98v-69.983"/></svg>